<svg width="500px" height="525px" viewBox="0 0 500 500" xmlns="http://www.w3.org/2000/svg" preserveAspectRatio="xMidYMid meet">
    <defs>
      <clipPath id="formato">
        <path d="M46.75,0.807L46.75,0.807v227.992c0,208.528,203.24,270.395,203.24,270.395s203.26-61.866,203.26-270.395V0.807H46.75z"/>
      </clipPath>
    </defs>

    <g id="fundo" fill="#063780" x="0">
      <path d="M46.75,0.807L46.75,0.807v227.992c0,208.528,203.24,270.395,203.24,270.395s203.26-61.866,203.26-270.395V0.807H46.75z"/>
    </g>

    <g id="estampa1" fill="#ff241d" x="0" clip-path="url(#formato)"><defs><pattern id="Pattern" x="0" y="0" width="200" height="200" patternUnits="userSpaceOnUse"><rect x="100" y="0" width="100" height="100"/><rect x="0" y="100" width="100" height="100"/></pattern></defs><rect fill="url(#Pattern)" x="0" y="0" width="500" height="500" clip-path="url(#corte-formato)" /></g>

    <g id="borda" fill="none" stroke="#4d004d" stroke-width="10" x="0">
      <path d="M46.75,0.807L46.75,0.807v227.992c0,208.528,203.24,270.395,203.24,270.395s203.26-61.866,203.26-270.395V0.807H46.75z"/>
    </g>

    <g id="adorno" transform="scale(3) translate(45, 57)">
    <path id="svg_31" d="m42.505,38.167l2.335,1.399c-0.309,0.107 -0.626,0.203 -0.944,0.291c-0.184,-0.125 -0.402,-0.195 -0.641,-0.195c-0.302,0 -0.584,0.123 -0.79,0.311c-0.205,-0.188 -0.479,-0.311 -0.782,-0.311c-0.307,0 -0.582,0.123 -0.792,0.311c-0.203,-0.188 -0.479,-0.311 -0.787,-0.311c-0.304,0 -0.579,0.123 -0.782,0.311c-0.21,-0.188 -0.485,-0.311 -0.792,-0.311c-0.302,0 -0.579,0.123 -0.785,0.311c-0.212,-0.188 -0.485,-0.311 -0.78699,-0.311c-0.30801,0 -0.583,0.123 -0.789,0.311c-0.205,-0.188 -0.481,-0.311 -0.787,-0.311s-0.581,0.123 -0.787,0.311c-0.21,-0.188 -0.48299,-0.311 -0.78699,-0.311c-0.271,0 -0.521,0.095 -0.715,0.25c-0.081,-0.016 -0.155,-0.04 -0.234,-0.058c-0.14,-0.09801 -0.306,-0.161 -0.48,-0.181l2.162,-1.604l7.964,0.098z" fill="#859894"/>
    <path id="svg_32" d="m58.569,22.263c0,0.13 -0.00201,0.257 -0.006,0.386c0,0.002 0,0.008 0,0.008c-0.326,2.827 -1.229,5.472 -2.594,7.82301l-0.634,-1.96301l2.151,-7.586l0.97099,-0.504c0.075,0.604 0.11201,1.216 0.11201,1.836z" fill="#859894"/>
    <polygon id="svg_33" points="53.55500411987305,13.95199966430664 57.487003326416016,20.930999755859375 55.33500289916992,28.516998291015625 48.30800247192383,31.88800048828125 43.62400436401367,25.81500244140625 47.20399856567383,15.874000549316406 " fill="#B2C0BB"/>
    <path id="svg_34" d="m43.624,25.815l4.684,6.073l-5.236,5.657c-5.479,-0.07 -10.262,-3.025 -12.903,-7.42l2.965,-4.311h10.49001l0,0.001z" fill="#859894"/>
    <path id="svg_35" d="m30.042,15.874l-0.578,-0.165c1.789,-3.763 5.068,-6.681 9.074,-7.987l0.08801,2.342l-8.584,5.81z" fill="#B2C0BB"/>
    <path id="svg_36" d="m19.647,20.931l1.793,7.586l-0.498,2.177c-1.812,-3.037 -2.855,-6.592 -2.855,-10.388l1.56,0.625z" fill="#B2C0BB"/>
    <path id="svg_37" d="m30.042,15.874l3.091,9.941l-2.965,4.311c-1.384,-2.296 -2.178,-4.985 -2.178,-7.862c0,-2.347 0.529,-4.569 1.474,-6.555l0.578,0.165z" fill="#B2C0BB"/>
    <path id="svg_38" d="m42.505,38.167l-7.966,-0.097l-5.71,-5.993l1.34,-1.951c2.642,4.395 7.424,7.35 12.903,7.42l-0.567,0.621z" fill="#859894"/>
    <path id="svg_39" d="m31.997,1.027l-0.923,1.729l-6.275,4.218h-1.718c2.361,-2.714 5.43,-4.792 8.916,-5.947z" fill="#B2C0BB"/>
    <path id="svg_40" d="m30.168,30.126l-1.34,1.951l-7.389,-3.56001l-1.793,-7.586l3.429,-7.027l6.389,1.805c-0.944,1.985 -1.474,4.208 -1.474,6.555c0.001,2.876 0.795,5.566 2.178,7.862z" fill="#FFFFFF"/>
    <path id="svg_41" d="m52.895,10.38l0.66,3.573l-6.35201,1.921l-8.577,-5.81l-0.08801,-2.342c1.496,-0.489 3.085,-0.748 4.742,-0.748c3.644,0 6.991,1.271 9.615,3.406z" fill="#B2C0BB"/>
    <path id="svg_42" d="m38.39,3.602l0.14799,4.12c-4.006,1.306 -7.285,4.224 -9.074,7.987l-6.389,-1.805l1.723,-6.93l6.275,-4.218l7.317,0.846z" fill="#FFFFFF"/>
    <path id="svg_43" d="m52.24,6.834l0.655,3.545c-2.624,-2.134 -5.971,-3.405 -9.614,-3.405c-1.657,0 -3.246,0.259 -4.742,0.748l-0.14799,-4.12l7.578,-0.846l6.271,4.078z" fill="#FFFFFF"/>
    <path id="svg_44" d="m53.705,6.974l-1.465,-0.14l-6.271,-4.078l-0.415,-1.454c3.172,1.194 5.964,3.159 8.151,5.672z" fill="#B2C0BB"/>
    <path id="svg_45" d="m43.281,37.55c4.502,0 8.55,-1.942 11.344,-5.038c-2.444,3.245 -5.84901,5.737 -9.784,7.054l-2.335,-1.399l0.566,-0.621c0.069,0.00401 0.137,0.00401 0.209,0.00401z" fill="#859894"/>
    <path id="svg_46" d="m55.335,28.517l0.634,1.96301c-0.406,0.70399 -0.854,1.38499 -1.34499,2.032c-2.79401,3.096 -6.842,5.038 -11.344,5.038c-0.071,0 -0.14,0 -0.209,-0.005l5.236,-5.657l7.028,-3.371z" fill="#47170E"/>
    <path id="svg_47" d="m58.457,20.427l-0.97099,0.504l-3.93201,-6.979l-0.66,-3.573c3.014,2.44 5.083,6.002 5.563,10.048z" fill="#47170E"/>
    <path id="svg_48" d="m58.698,20.306l-0.24,0.121c-0.48,-4.04601 -2.55,-7.608 -5.562,-10.048l-0.655,-3.545l1.465,0.14c3.11,3.565 4.992,8.226 4.992,13.332" fill="#723D1A"/>
    <polygon id="svg_49" points="47.20399856567383,15.874000549316406 43.62400436401367,25.81500244140625 33.132999420166016,25.81500244140625 30.042003631591797,15.874000549316406 38.62600326538086,10.06399917602539 " fill="#47170E"/>
    <path id="svg_50" d="m45.553,1.302l0.415,1.454l-7.578,0.846l-7.316,-0.846l0.923,-1.729c2.012,-0.668 4.163,-1.027 6.394,-1.027c2.52399,0 4.937,0.457 7.16199,1.302z" fill="#723D1A"/>
    <path id="svg_51" d="m24.798,6.974l-1.723,6.93l-3.429,7.027l-1.561,-0.625c0,-5.106 1.887,-9.767 4.994,-13.332h1.719l0,0z" fill="#723D1A"/>
    <path id="svg_52" d="m28.829,32.077l5.711,5.993l-2.16199,1.604c-0.049,-0.007 -0.092,-0.012 -0.141,-0.012h-0.00401c-4.771,-1.515 -8.772,-4.748 -11.291,-8.968l0.498,-2.177l7.389,3.56001z" fill="#47170E"/>
    <path id="svg_53" d="m42.505,38.167l-7.966,-0.097l-2.197,1.627l-0.009,0.079c1.479,0.45 3,0.747 4.532,0.849l-0.004,0.008l0.007,-0.008c2.706,0.188 5.436,-0.173 8.024,-1.067l-2.387,-1.391z" fill="#859894"/>
    <path id="svg_54" d="m3.037,36.216c1.638,0.807 3.288,0.682 4.384,-0.005c-0.406,-1.253 -1.491,-2.46 -3.037,-3.28799c-1.546,-0.82201 -3.19,-1.04201 -4.384,-0.52801c0.259,1.47501 1.399,3.021 3.037,3.82101z"/>
    <path id="svg_55" d="m11.562,32.229c-0.56,1.479 -1.588,2.73299 -2.769,3.26099c-0.789,-0.998 -1.015,-2.631 -0.394,-4.16299c0.619,-1.53201 1.881,-2.538 3.122,-2.882c0.561,0.937 0.592,2.294 0.041,3.784z"/>
    <path id="svg_56" d="m6.314,42.01c1.74,0.547 3.356,0.166 4.332,-0.678c-0.595,-1.174 -1.851,-2.202 -3.506,-2.781c-1.652,-0.57301 -3.314,-0.538 -4.412,0.157c0.485,1.413 1.846,2.766 3.586,3.302z"/>
    <path id="svg_57" d="m14.124,36.758c-0.324,1.55299 -1.146,2.947 -2.232,3.647c-0.934,-0.862 -1.406,-2.442 -1.03,-4.05c0.376,-1.612 1.465,-2.802 2.642,-3.333c0.699,0.842 0.935,2.18 0.62,3.736z"/>
    <path id="svg_58" d="m10.438,47.229c1.804,0.278 3.341,-0.34801 4.181,-1.331c-0.77,-1.069 -2.165,-1.894 -3.895,-2.21301c-1.721,-0.311 -3.352,-0.021 -4.331,0.831c0.69,1.325 2.247,2.44901 4.045,2.71301z"/>
    <path id="svg_59" d="m17.354,40.847c-0.086,1.585 -0.676,3.085 -1.646,3.946c-1.059,-0.71 -1.763,-2.201 -1.638,-3.848c0.12,-1.649 1.017,-2.991 2.097,-3.698c0.82,0.727 1.263,2.012 1.187,3.6z"/>
    <path id="svg_60" d="m15.312,51.76c1.825,-0.007 3.249,-0.855 3.924,-1.955c-0.92,-0.942 -2.429,-1.542 -4.18,-1.594c-1.75,-0.044 -3.319,0.489 -4.157,1.484c0.884,1.206 2.596,2.074 4.413,2.065z"/>
    <path id="svg_61" d="m21.171,44.396c0.162,1.576 -0.199,3.14999 -1.025,4.14899c-1.15,-0.542 -2.082,-1.904 -2.204,-3.549c-0.136,-1.65 0.547,-3.11501 1.507,-3.979c0.918,0.596 1.558,1.798 1.722,3.37901z"/>
    <path id="svg_62" d="m20.824,55.492c1.802,-0.286 3.078,-1.342 3.577,-2.531c-1.05399,-0.792 -2.63699,-1.15 -4.378,-0.936c-1.731,0.221 -3.205,0.992 -3.881,2.101c1.061,1.056 2.885,1.655 4.682,1.366z"/>
    <path id="svg_63" d="m25.486,47.319c0.397,1.526 0.284,3.143 -0.381,4.257c-1.216,-0.36 -2.344,-1.562 -2.72,-3.172c-0.383,-1.609 0.065,-3.157 0.883,-4.159c1.002,0.446 1.811,1.535 2.218,3.074z"/>
    <path id="svg_64" d="m26.845,58.335c1.74001,-0.56 2.83601,-1.802 3.145,-3.055c-1.161,-0.618 -2.781,-0.728 -4.47,-0.247c-1.677,0.483 -3.017,1.47 -3.511,2.672c1.211,0.877 3.1,1.192 4.836,0.63z"/>
    <path id="svg_65" d="m30.191,49.537c0.63,1.451 0.76801,3.06499 0.28201,4.268c-1.26,-0.166 -2.561,-1.183 -3.178,-2.716c-0.625,-1.53 -0.42,-3.131 0.232,-4.241c1.061,0.283 2.02499,1.237 2.66399,2.689z"/>
    <path id="svg_66" d="m33.234,60.211c1.632,-0.819 2.528,-2.217 2.638,-3.503c-1.242,-0.429 -2.86,-0.288 -4.452,0.446c-1.587,0.739 -2.755,1.92 -3.061,3.184c1.329,0.679 3.25301,0.702 4.875,-0.127z"/>
    <path id="svg_67" d="m35.182,51.006c0.849,1.33401 1.231,2.908 0.938,4.172c-1.269,0.028 -2.711,-0.773 -3.56,-2.19c-0.853,-1.417 -0.896,-3.031 -0.425,-4.229c1.09,0.113 2.193,0.907 3.047,2.24699z"/>
    <path id="svg_68" d="m65.634,32.229c0.55501,1.479 1.58001,2.73299 2.76801,3.26099c0.78699,-0.998 1.00999,-2.631 0.38999,-4.16299c-0.617,-1.53201 -1.876,-2.538 -3.12,-2.882c-0.563,0.937 -0.591,2.294 -0.038,3.784z"/>
    <path id="svg_69" d="m74.157,36.216c-1.63999,0.807 -3.28799,0.682 -4.382,-0.005c0.40401,-1.253 1.487,-2.46 3.035,-3.28799c1.543,-0.82201 3.192,-1.04201 4.382,-0.52801c-0.259,1.47501 -1.39799,3.021 -3.035,3.82101z"/>
    <path id="svg_70" d="m63.069,36.758c0.326,1.55299 1.14399,2.947 2.23199,3.647c0.93401,-0.862 1.406,-2.442 1.03201,-4.05c-0.37601,-1.612 -1.46701,-2.802 -2.64201,-3.333c-0.7,0.842 -0.93999,2.18 -0.62199,3.736z"/>
    <path id="svg_71" d="m70.879,42.01c-1.743,0.547 -3.356,0.166 -4.332,-0.678c0.595,-1.174 1.851,-2.202 3.50801,-2.781c1.64799,-0.57301 3.31,-0.538 4.40999,0.157c-0.483,1.413 -1.84699,2.766 -3.586,3.302z"/>
    <path id="svg_72" d="m59.839,40.847c0.083,1.585 0.678,3.085 1.648,3.946c1.055,-0.71 1.76099,-2.201 1.63599,-3.848c-0.12,-1.649 -1.019,-2.991 -2.097,-3.698c-0.819,0.727 -1.265,2.012 -1.187,3.6z"/>
    <path id="svg_73" d="m66.75301,47.229c-1.802,0.278 -3.34101,-0.34801 -4.179,-1.331c0.77,-1.069 2.165,-1.894 3.892,-2.21301c1.722,-0.311 3.356,-0.021 4.332,0.831c-0.688,1.325 -2.243,2.44901 -4.045,2.71301z"/>
    <path id="svg_74" d="m56.022,44.396c-0.16199,1.576 0.196,3.14999 1.025,4.14899c1.15,-0.542 2.079,-1.904 2.204,-3.549c0.133,-1.65 -0.547,-3.11501 -1.507,-3.979c-0.917,0.596 -1.556,1.798 -1.722,3.37901z"/>
    <path id="svg_75" d="m61.881,51.76c-1.825,-0.007 -3.249,-0.855 -3.927,-1.955c0.923,-0.942 2.432,-1.542 4.186,-1.594c1.749,-0.044 3.318,0.489 4.154,1.484c-0.88301,1.206 -2.59501,2.074 -4.41301,2.065z"/>
    <path id="svg_76" d="m51.707,47.319c-0.39899,1.526 -0.284,3.143 0.37901,4.257c1.22,-0.36 2.348,-1.562 2.722,-3.172c0.383,-1.609 -0.063,-3.157 -0.881,-4.159c-1.001,0.446 -1.814,1.535 -2.22,3.074z"/>
    <path id="svg_77" d="m56.372,55.492c-1.804,-0.286 -3.083,-1.342 -3.58099,-2.531c1.05399,-0.792 2.641,-1.15 4.377,-0.936c1.736,0.221 3.21,0.992 3.884,2.101c-1.061,1.056 -2.883,1.655 -4.68,1.366z"/>
    <path id="svg_78" d="m47,49.537c-0.62801,1.451 -0.76601,3.06499 -0.28001,4.268c1.26,-0.166 2.55901,-1.183 3.175,-2.716c0.628,-1.53 0.42,-3.131 -0.233,-4.241c-1.057,0.283 -2.02299,1.237 -2.66199,2.689z"/>
    <path id="svg_79" d="m50.348,58.335c-1.74001,-0.56 -2.83601,-1.802 -3.146,-3.055c1.163,-0.618 2.785,-0.728 4.469,-0.247c1.68,0.483 3.018,1.47 3.517,2.672c-1.213,0.877 -3.106,1.192 -4.84,0.63z"/>
    <path id="svg_80" d="m42.011,51.006c-0.849,1.33401 -1.229,2.908 -0.938,4.172c1.271,0.028 2.711,-0.773 3.558,-2.19c0.853,-1.417 0.9,-3.031 0.424,-4.229c-1.09,0.113 -2.187,0.907 -3.04401,2.24699z"/>
    <path id="svg_81" d="m43.957,60.211c-1.631,-0.819 -2.522,-2.217 -2.63699,-3.503c1.24599,-0.429 2.864,-0.288 4.452,0.446c1.587,0.739 2.757,1.92 3.065,3.184c-1.336,0.679 -3.257,0.702 -4.88,-0.127z"/>
</g>
</svg>
